<mxfile host="65bd71144e">
    <diagram id="dER7sNQvVv-knZvmjTM4" name="Page-1">
        <mxGraphModel dx="2814" dy="2239" grid="1" gridSize="10" guides="1" tooltips="1" connect="1" arrows="1" fold="1" page="1" pageScale="1" pageWidth="850" pageHeight="1100" math="0" shadow="0">
            <root>
                <mxCell id="0"/>
                <mxCell id="1" parent="0"/>
                <mxCell id="6" value="" style="triangle;whiteSpace=wrap;html=1;fillColor=#006600;" vertex="1" parent="1">
                    <mxGeometry x="-190" y="330" width="60" height="80" as="geometry"/>
                </mxCell>
                <mxCell id="7" value="index.php" style="rounded=0;whiteSpace=wrap;html=1;" vertex="1" parent="1">
                    <mxGeometry x="-130" y="310" width="220" height="110" as="geometry"/>
                </mxCell>
                <mxCell id="13" style="edgeStyle=none;html=1;exitX=0.5;exitY=0;exitDx=0;exitDy=0;" edge="1" parent="1">
                    <mxGeometry relative="1" as="geometry">
                        <mxPoint x="480" y="310" as="sourcePoint"/>
                        <mxPoint x="480" y="200" as="targetPoint"/>
                    </mxGeometry>
                </mxCell>
                <mxCell id="15" style="edgeStyle=none;html=1;exitX=0.977;exitY=0.545;exitDx=0;exitDy=0;entryX=0;entryY=0.5;entryDx=0;entryDy=0;exitPerimeter=0;" edge="1" parent="1" source="8" target="10">
                    <mxGeometry relative="1" as="geometry"/>
                </mxCell>
                <mxCell id="8" value="login_process.php" style="rounded=0;whiteSpace=wrap;html=1;" vertex="1" parent="1">
                    <mxGeometry x="315" y="310" width="220" height="110" as="geometry"/>
                </mxCell>
                <mxCell id="14" style="html=1;exitX=0.25;exitY=1;exitDx=0;exitDy=0;entryX=0.25;entryY=0;entryDx=0;entryDy=0;" edge="1" parent="1">
                    <mxGeometry relative="1" as="geometry">
                        <mxPoint x="390" y="200" as="sourcePoint"/>
                        <mxPoint x="390" y="310" as="targetPoint"/>
                    </mxGeometry>
                </mxCell>
                <mxCell id="9" value="connection.php" style="rounded=0;whiteSpace=wrap;html=1;" vertex="1" parent="1">
                    <mxGeometry x="315" y="90" width="220" height="110" as="geometry"/>
                </mxCell>
                <mxCell id="16" style="edgeStyle=none;html=1;exitX=0.5;exitY=1;exitDx=0;exitDy=0;entryX=0.5;entryY=0;entryDx=0;entryDy=0;" edge="1" parent="1" source="10" target="11">
                    <mxGeometry relative="1" as="geometry"/>
                </mxCell>
                <mxCell id="10" value="welcome.php" style="rounded=0;whiteSpace=wrap;html=1;" vertex="1" parent="1">
                    <mxGeometry x="790" y="315" width="220" height="110" as="geometry"/>
                </mxCell>
                <mxCell id="11" value="logout.php" style="rounded=0;whiteSpace=wrap;html=1;" vertex="1" parent="1">
                    <mxGeometry x="790" y="640" width="220" height="110" as="geometry"/>
                </mxCell>
                <mxCell id="12" value="" style="endArrow=classic;html=1;exitX=1;exitY=0.5;exitDx=0;exitDy=0;entryX=0;entryY=0.5;entryDx=0;entryDy=0;" edge="1" parent="1" source="7" target="8">
                    <mxGeometry width="50" height="50" relative="1" as="geometry">
                        <mxPoint x="400" y="420" as="sourcePoint"/>
                        <mxPoint x="310" y="370" as="targetPoint"/>
                    </mxGeometry>
                </mxCell>
                <mxCell id="17" style="edgeStyle=none;html=1;exitX=0;exitY=0.5;exitDx=0;exitDy=0;entryX=0.595;entryY=0.991;entryDx=0;entryDy=0;entryPerimeter=0;" edge="1" parent="1" source="11" target="7">
                    <mxGeometry relative="1" as="geometry">
                        <Array as="points">
                            <mxPoint y="700"/>
                        </Array>
                    </mxGeometry>
                </mxCell>
                <mxCell id="18" value="&lt;h1 style=&quot;margin-top: 0px;&quot;&gt;connection.php&lt;/h1&gt;&lt;div&gt;1. MySQL Database and Server connection&lt;/div&gt;&lt;div&gt;2. Error message&lt;/div&gt;" style="text;html=1;whiteSpace=wrap;overflow=hidden;rounded=0;" vertex="1" parent="1">
                    <mxGeometry x="540" y="85" width="260" height="120" as="geometry"/>
                </mxCell>
                <mxCell id="19" value="&lt;h1 style=&quot;margin-top: 0px;&quot;&gt;welcome.php&lt;/h1&gt;&lt;div&gt;1. SESSION start&lt;/div&gt;&lt;div&gt;2. Welcome user&lt;/div&gt;&lt;div&gt;3. Logout variable&lt;/div&gt;" style="text;html=1;whiteSpace=wrap;overflow=hidden;rounded=0;" vertex="1" parent="1">
                    <mxGeometry x="1020" y="315" width="260" height="120" as="geometry"/>
                </mxCell>
                <mxCell id="20" value="&lt;h1 style=&quot;margin-top: 0px;&quot;&gt;logout.php&lt;/h1&gt;&lt;div&gt;1. SESSION start&lt;/div&gt;&lt;div&gt;2. SESSION destroy&lt;/div&gt;&lt;div&gt;3. Back to index.php&lt;/div&gt;" style="text;html=1;whiteSpace=wrap;overflow=hidden;rounded=0;" vertex="1" parent="1">
                    <mxGeometry x="1020" y="640" width="260" height="120" as="geometry"/>
                </mxCell>
                <mxCell id="22" value="&lt;h1 style=&quot;margin-top: 0px;&quot;&gt;login_process.php&lt;/h1&gt;&lt;div&gt;1. SESSION Start&lt;/div&gt;&lt;div&gt;2. SESSION Time&lt;/div&gt;&lt;div&gt;3. SESSION variable&lt;/div&gt;" style="text;html=1;whiteSpace=wrap;overflow=hidden;rounded=0;" vertex="1" parent="1">
                    <mxGeometry x="310" y="440" width="260" height="120" as="geometry"/>
                </mxCell>
                <mxCell id="23" value="&lt;h1 style=&quot;margin-top: 0px;&quot;&gt;index.php&lt;/h1&gt;&lt;div&gt;1. HTML Form&lt;/div&gt;&lt;div&gt;2. Action&lt;/div&gt;&lt;div&gt;3. Method&lt;/div&gt;" style="text;html=1;whiteSpace=wrap;overflow=hidden;rounded=0;" vertex="1" parent="1">
                    <mxGeometry x="-130" y="180" width="260" height="120" as="geometry"/>
                </mxCell>
                <mxCell id="24" value="&lt;font style=&quot;font-size: 24px;&quot;&gt;&lt;b&gt;Student Login System&lt;/b&gt;&lt;/font&gt;" style="text;html=1;align=center;verticalAlign=middle;whiteSpace=wrap;rounded=0;" vertex="1" parent="1">
                    <mxGeometry x="278" y="-20" width="295" height="50" as="geometry"/>
                </mxCell>
            </root>
        </mxGraphModel>
    </diagram>
</mxfile>